<?xml version="1.0" encoding="UTF-8" standalone="no"?>
<!-- Generator: Adobe Illustrator 18.1.1, SVG Export Plug-In . SVG Version: 6.00 Build 0)  -->

<svg
   xmlns:dc="http://purl.org/dc/elements/1.1/"
   xmlns:cc="http://creativecommons.org/ns#"
   xmlns:rdf="http://www.w3.org/1999/02/22-rdf-syntax-ns#"
   xmlns:svg="http://www.w3.org/2000/svg"
   xmlns="http://www.w3.org/2000/svg"
   xmlns:sodipodi="http://sodipodi.sourceforge.net/DTD/sodipodi-0.dtd"
   xmlns:inkscape="http://www.inkscape.org/namespaces/inkscape"
   version="1.1"
   id="Layer_1"
   x="0px"
   y="0px"
   viewBox="0 0 404 182"
   enable-background="new 0 0 612 792"
   xml:space="preserve"
   inkscape:version="0.48.4 r9939"
   width="100%"
   height="100%"
   sodipodi:docname="logo-dinex-full.svg"><metadata
     id="metadata77"><rdf:RDF><cc:Work
         rdf:about=""><dc:format>image/svg+xml</dc:format><dc:type
           rdf:resource="http://purl.org/dc/dcmitype/StillImage" /></cc:Work></rdf:RDF></metadata><defs
     id="defs75" /><sodipodi:namedview
     pagecolor="#ffffff"
     bordercolor="#666666"
     borderopacity="1"
     objecttolerance="10"
     gridtolerance="10"
     guidetolerance="10"
     inkscape:pageopacity="0"
     inkscape:pageshadow="2"
     inkscape:window-width="1855"
     inkscape:window-height="1056"
     id="namedview73"
     showgrid="false"
     inkscape:zoom="0.2979798"
     inkscape:cx="-251.08474"
     inkscape:cy="396"
     inkscape:window-x="65"
     inkscape:window-y="24"
     inkscape:window-maximized="1"
     inkscape:current-layer="Layer_1" /><g
     id="g3"
     transform="matrix(0.644,0,0,0.644,6.9182,-142.6894)"><g
       id="g5"><g
         id="g7"><path
           d="m 210.2,330.6 11.4,4.8 c 0.8,0.3 1.7,0 2.1,-0.8 l 5.1,-10.7 c 0.4,-0.8 1.4,-1.2 2.2,-0.8 l 5.7,2.8 c 0.8,0.4 1.1,1.4 0.8,2.2 l -9.1,18.9 c -0.4,0.8 -1.3,1.1 -2.1,0.8 l -19.7,-8.2 c -0.8,-0.3 -1.2,-1.3 -0.9,-2.2 l 2.4,-5.9 c 0.3,-0.8 1.2,-1.2 2.1,-0.9 z"
           id="path9"
           inkscape:connector-curvature="0"
           style="fill:#00abec" /></g><ellipse
         cx="230.3"
         cy="372.60001"
         rx="12.9"
         ry="13"
         id="ellipse11"
         sodipodi:cx="230.3"
         sodipodi:cy="372.60001"
         sodipodi:rx="12.9"
         sodipodi:ry="13"
         style="fill:#535f68"
         d="m 243.2,372.60001 c 0,7.1797 -5.77552,13 -12.9,13 -7.12447,0 -12.9,-5.8203 -12.9,-13 0,-7.17971 5.77553,-13 12.9,-13 7.12448,0 12.9,5.82029 12.9,13 z" /><ellipse
         cx="25"
         cy="331.39999"
         rx="12.9"
         ry="13"
         id="ellipse13"
         sodipodi:cx="25"
         sodipodi:cy="331.39999"
         sodipodi:rx="12.9"
         sodipodi:ry="13"
         style="fill:#00abec"
         d="m 37.9,331.39999 c 0,7.17971 -5.775527,13 -12.9,13 -7.124473,0 -12.9,-5.82029 -12.9,-13 0,-7.1797 5.775527,-13 12.9,-13 7.124473,0 12.9,5.8203 12.9,13 z" /><path
         d="m 44.3,306.4 c 1,0.7 2.3,0.4 3,-0.5 18,-22.2 45.4,-36.4 75.9,-36.4 43.5,0 80.4,28.8 93.3,68.5 0.4,1.2 1.8,1.9 3,1.4 l 8.5,-3.2 c 1.2,-0.4 1.8,-1.7 1.4,-2.9 -14.7,-45.1 -56.8,-77.7 -106.1,-77.7 -35.2,0 -66.6,16.5 -87.1,42.3 -0.8,1.1 -0.6,2.6 0.5,3.4 l 7.6,5.1 z"
         id="path15"
         inkscape:connector-curvature="0"
         style="fill:#00abec" /><path
         d="m 219.1,403.2 c -1.1,-1.4 -3.3,-1.1 -3.9,0.6 -14,37.6 -49.9,64.5 -91.9,64.5 -54.1,0 -98.2,-44.6 -98.2,-99.4 0,-1.5 0,-3 0.1,-4.5 0.1,-1.3 -1,-2.4 -2.3,-2.4 h -9.1 c -1.2,0 -2.2,1 -2.3,2.2 -0.1,1.5 -0.1,3.1 -0.1,4.7 0,62.4 50.2,113.2 111.8,113.2 45.9,0 85.4,-28.1 102.6,-68.2 0.3,-0.8 0.2,-1.7 -0.3,-2.4 l -6.4,-8.3 z"
         id="path17"
         inkscape:connector-curvature="0"
         style="fill:#535f68" /></g><g
       id="g19"><path
         d="m 286.8,413 c -9.9,0 -23.3,-1 -27.5,-1.7 -2.4,-0.4 -3.6,-1.6 -3.6,-4.4 v -95.2 c 0,-2.8 1.3,-4 3.6,-4.4 4.2,-0.7 17.6,-1.7 27.5,-1.7 27.9,0 43.9,15.3 43.9,43.3 v 20.8 c 0,28.1 -15.9,43.3 -43.9,43.3 z m 24.6,-64.1 c 0,-21.2 -10.6,-26.7 -24.6,-26.7 -5.2,0 -8.8,0.3 -11.7,0.4 V 396 c 2.9,0.1 6.6,0.4 11.7,0.4 14,0 24.6,-5.5 24.6,-26.7 v -20.8 z"
         id="path21"
         inkscape:connector-curvature="0"
         style="fill:#535f68" /><path
         d="m 506.7,380.9 h -43.8 v 0.4 c 0,7.9 3.2,17.3 16.1,17.3 9.8,0 19.1,-0.8 24.7,-1.4 0.1,0 0.3,0 0.4,0 1.3,0 2.4,0.7 2.4,2 v 9 c 0,2.2 -0.4,3.1 -2.8,3.5 -8.7,1.6 -14,2.3 -26.1,2.3 -13.4,0 -32.5,-7.3 -32.5,-34.2 v -10.1 c 0,-21.2 11.7,-34.6 32.2,-34.6 20.7,0 32,14.3 32,34.6 v 7.6 c 0,2.4 -0.8,3.6 -2.6,3.6 z m -15.2,-13.3 c 0,-10.6 -5.8,-16.7 -14.1,-16.7 -8.3,0 -14.4,6 -14.4,16.7 v 0.5 h 28.5 v -0.5 z"
         id="path23"
         inkscape:connector-curvature="0"
         style="fill:#00abec" /><path
         d="m 579.8,410.3 c 0.1,0.3 0.3,0.5 0.3,1 0,1 -0.9,1.8 -2,1.8 h -15.3 c -1.5,0 -2.2,-0.4 -3.6,-2.7 l -15.3,-24 -14.5,24 c -1.5,2.3 -2.2,2.7 -3.6,2.7 H 512 c -1.1,0 -1.6,-0.7 -1.6,-1.5 0,-0.4 0.1,-0.8 0.4,-1.2 L 534.9,373.5 512,339 c -0.1,-0.3 -0.3,-0.5 -0.3,-0.8 0,-1 0.9,-1.9 2.1,-1.9 h 15.3 c 1.5,0 2.2,0.7 3.5,2.7 l 47.2,71.3 z"
         id="path25"
         inkscape:connector-curvature="0"
         style="fill:#00abec" /><path
         d="m 433.7,413 h -12.4 c -1.5,0 -2.7,-1.4 -2.7,-2.9 v -44.3 c 0,-11.8 -1.1,-15.2 -11.4,-15.2 -4.6,0 -9.5,1.9 -15.2,4.9 v 54.9 c 0,1.5 -1.2,2.9 -2.7,2.9 h -12.4 c -1.5,0 -2.7,-1.4 -2.7,-2.9 V 339 c 0,-1.5 1.2,-2.7 2.7,-2.7 h 11.7 c 1.5,0 2.7,1.2 2.7,2.7 v 2.9 c 7.8,-5 12.9,-6.5 21.8,-6.5 19.3,0 23.2,13.2 23.2,30.5 v 44.3 c 0.1,1.4 -1.1,2.8 -2.6,2.8 z"
         id="path27"
         inkscape:connector-curvature="0"
         style="fill:#535f68" /><path
         d="m 360.4,410.5 c 0,1.5 -0.1,2.9 -1.6,2.9 h -12.4 c -1.5,0 -2.7,-1.4 -2.7,-2.9 v -62.9 c 0,-1.5 1.2,-2.7 2.7,-2.7 h 11.7 c 1.5,0 2.3,1.2 2.3,2.7 v 62.9 z"
         id="path29"
         inkscape:connector-curvature="0"
         style="fill:#535f68" /><ellipse
         cx="352.10001"
         cy="321.39999"
         rx="13"
         ry="13.3"
         id="ellipse31"
         sodipodi:cx="352.10001"
         sodipodi:cy="321.39999"
         sodipodi:rx="13"
         sodipodi:ry="13.3"
         style="fill:#535f68"
         d="m 365.10001,321.39999 c 0,7.34539 -5.8203,13.3 -13,13.3 -7.17971,0 -13,-5.95461 -13,-13.3 0,-7.34538 5.82029,-13.3 13,-13.3 7.1797,0 13,5.95462 13,13.3 z" /><ellipse
         cx="563"
         cy="338.89999"
         rx="13.4"
         ry="13.6"
         id="ellipse33"
         sodipodi:cx="563"
         sodipodi:cy="338.89999"
         sodipodi:rx="13.4"
         sodipodi:ry="13.6"
         style="fill:#00abec"
         d="m 576.4,338.89999 c 0,7.51108 -5.99938,13.6 -13.4,13.6 -7.40062,0 -13.4,-6.08892 -13.4,-13.6 0,-7.51107 5.99938,-13.6 13.4,-13.6 7.40062,0 13.4,6.08893 13.4,13.6 z" /><g
         id="g35"><path
           d="m 280.9,456.9 h -3.3 c -0.4,0 -0.7,-0.4 -0.7,-0.8 v -12.4 c 0,-2.8 -0.6,-3.6 -2.6,-3.6 -0.7,0 -2.1,0.2 -3.4,0.9 0.1,0.8 0.1,1.7 0.1,2.6 V 456 c 0,0.4 -0.3,0.8 -0.7,0.8 H 267 c -0.4,0 -0.7,-0.4 -0.7,-0.8 v -12.4 c 0,-2.8 -0.5,-3.6 -2.5,-3.6 -0.8,0 -1.8,0.4 -3.3,1.2 V 456 c 0,0.4 -0.3,0.8 -0.7,0.8 h -3.3 c -0.4,0 -0.7,-0.4 -0.7,-0.8 v -19 c 0,-0.4 0.3,-0.7 0.7,-0.7 h 3.1 c 0.4,0 0.7,0.3 0.7,0.7 v 0.8 c 1.5,-1 3,-1.8 5.2,-1.8 2.1,0 3.4,0.6 4.2,1.6 1.8,-1 3.5,-1.6 6,-1.6 4.9,0 6,3.4 6,7.7 v 12.4 c -0.1,0.4 -0.4,0.8 -0.8,0.8 z"
           id="path37"
           inkscape:connector-curvature="0"
           style="fill:#535f68" /><path
           d="M 302.3,456.9 H 299 c -0.4,0 -0.7,-0.3 -0.7,-0.7 v -0.8 c -1.9,1.2 -3.4,1.8 -5.7,1.8 -1.8,0 -3.4,-0.5 -4.4,-1.5 -1.3,-1.4 -1.8,-3.6 -1.8,-6.7 v -12 c 0,-0.4 0.3,-0.8 0.7,-0.8 h 3.3 c 0.4,0 0.7,0.4 0.7,0.8 v 12 c 0,1.8 0.1,2.9 0.8,3.5 0.5,0.4 1.1,0.7 2.2,0.7 1.3,0 3.1,-0.9 4.1,-1.5 V 437 c 0,-0.4 0.3,-0.8 0.7,-0.8 h 3.3 c 0.4,0 0.7,0.4 0.7,0.8 v 19.1 c 0.1,0.5 -0.2,0.8 -0.6,0.8 z"
           id="path39"
           inkscape:connector-curvature="0"
           style="fill:#535f68" /><path
           d="m 323.7,448.3 h -11.8 v 0.1 c 0,2.1 0.9,4.6 4.3,4.6 2.6,0 5.1,-0.2 6.7,-0.4 0,0 0.1,0 0.1,0 0.4,0 0.7,0.2 0.7,0.5 v 2.4 c 0,0.6 -0.1,0.8 -0.8,1 -2.3,0.4 -3.8,0.6 -7,0.6 -3.6,0 -8.7,-2 -8.7,-9.2 v -2.7 c 0,-5.7 3.1,-9.3 8.7,-9.3 5.6,0 8.6,3.8 8.6,9.3 v 2.1 c -0.1,0.6 -0.3,1 -0.8,1 z m -4.1,-3.6 c 0,-2.9 -1.6,-4.5 -3.8,-4.5 -2.2,0 -3.9,1.6 -3.9,4.5 v 0.1 h 7.7 v -0.1 z m 2.1,-15.8 -4.3,4.5 c -0.3,0.3 -0.4,0.5 -0.9,0.5 h -3.1 c -0.2,0 -0.3,-0.1 -0.3,-0.3 0,-0.1 0,-0.3 0.1,-0.4 l 3.4,-4.4 c 0.3,-0.4 0.5,-0.5 0.9,-0.5 h 3.8 c 0.3,0 0.4,0.1 0.4,0.3 0.2,0.1 0.1,0.2 0,0.3 z"
           id="path41"
           inkscape:connector-curvature="0"
           style="fill:#535f68" /><path
           d="m 344.4,437.1 -4.6,16.7 c -0.7,2.7 -2.7,3.4 -4.5,3.4 -1.8,0 -3.8,-0.7 -4.5,-3.4 l -4.6,-16.7 c 0,-0.1 0,-0.2 0,-0.3 0,-0.3 0.3,-0.6 0.6,-0.6 h 3.6 c 0.3,0 0.6,0.3 0.7,0.7 l 3.5,15.3 c 0.1,0.7 0.4,0.9 0.7,0.9 0.3,0 0.5,-0.2 0.7,-0.9 l 3.5,-15.3 c 0.1,-0.5 0.4,-0.7 0.8,-0.7 h 3.6 c 0.3,0 0.6,0.3 0.6,0.6 0,0.1 0,0.2 -0.1,0.3 z"
           id="path43"
           inkscape:connector-curvature="0"
           style="fill:#535f68" /><path
           d="m 362.9,448.3 h -11.8 v 0.1 c 0,2.1 0.9,4.6 4.3,4.6 2.6,0 5.1,-0.2 6.7,-0.4 0,0 0.1,0 0.1,0 0.4,0 0.7,0.2 0.7,0.5 v 2.4 c 0,0.6 -0.1,0.8 -0.8,1 -2.3,0.4 -3.8,0.6 -7,0.6 -3.6,0 -8.7,-2 -8.7,-9.2 v -2.7 c 0,-5.7 3.1,-9.3 8.7,-9.3 5.6,0 8.6,3.8 8.6,9.3 v 2.1 c -0.1,0.6 -0.3,1 -0.8,1 z m -4.1,-3.6 c 0,-2.9 -1.6,-4.5 -3.8,-4.5 -2.2,0 -3.9,1.6 -3.9,4.5 v 0.1 h 7.7 v -0.1 z"
           id="path45"
           inkscape:connector-curvature="0"
           style="fill:#535f68" /><path
           d="m 377.7,456.9 c -0.9,0.1 -1.7,0.3 -2.5,0.3 -4.1,0 -5.7,-0.9 -5.7,-5.8 v -11.5 l -3.4,-0.5 c -0.4,-0.1 -0.7,-0.3 -0.7,-0.7 V 437 c 0,-0.4 0.3,-0.7 0.7,-0.7 h 3.4 v -3 c 0,-0.4 0.3,-0.7 0.7,-0.7 l 3.4,-0.6 c 0,0 0.1,0 0.1,0 0.3,0 0.6,0.2 0.6,0.5 v 3.8 h 3.3 c 0.4,0 0.7,0.3 0.7,0.7 v 2.2 c 0,0.4 -0.3,0.7 -0.7,0.7 h -3.3 v 11.5 c 0,1.8 0.1,2.1 1.4,2.1 h 1.9 c 0.5,0 0.8,0.2 0.8,0.5 v 2.3 c 0,0.4 -0.2,0.6 -0.7,0.6 z"
           id="path47"
           inkscape:connector-curvature="0"
           style="fill:#535f68" /><path
           d="m 397.6,448.3 h -11.8 v 0.1 c 0,2.1 0.9,4.6 4.3,4.6 2.6,0 5.1,-0.2 6.7,-0.4 0,0 0.1,0 0.1,0 0.4,0 0.7,0.2 0.7,0.5 v 2.4 c 0,0.6 -0.1,0.8 -0.8,1 -2.3,0.4 -3.8,0.6 -7,0.6 -3.6,0 -8.7,-2 -8.7,-9.2 v -2.7 c 0,-5.7 3.1,-9.3 8.7,-9.3 5.6,0 8.6,3.8 8.6,9.3 v 2.1 c -0.1,0.6 -0.3,1 -0.8,1 z m -4.1,-3.6 c 0,-2.9 -1.6,-4.5 -3.8,-4.5 -2.2,0 -3.9,1.6 -3.9,4.5 v 0.1 h 7.7 v -0.1 z"
           id="path49"
           inkscape:connector-curvature="0"
           style="fill:#535f68" /><path
           d="m 418,457.2 c -1.4,0 -4.4,-0.2 -6.5,-0.7 -0.4,-0.1 -0.7,-0.4 -0.7,-0.8 v -2.2 c 0,-0.3 0.3,-0.6 0.6,-0.6 0.1,0 0.1,0 0.1,0 1.7,0.2 5,0.4 6.1,0.4 2.2,0 2.6,-0.8 2.6,-1.8 0,-0.7 -0.4,-1.1 -1.6,-1.9 l -5,-3.1 c -1.8,-1.1 -3,-2.9 -3,-5.1 0,-3.7 2.3,-5.5 6.9,-5.5 2.9,0 4.6,0.3 6.4,0.7 0.4,0.1 0.7,0.4 0.7,0.8 v 2.1 c 0,0.4 -0.2,0.7 -0.6,0.7 -0.1,0 -0.1,0 -0.1,0 -1,-0.1 -3.9,-0.4 -6,-0.4 -1.7,0 -2.5,0.4 -2.5,1.5 0,0.6 0.5,1 1.4,1.5 l 4.7,2.9 c 3,1.9 3.5,3.7 3.5,5.6 0.1,3.4 -2.2,5.9 -7,5.9 z"
           id="path51"
           inkscape:connector-curvature="0"
           style="fill:#535f68" /><path
           d="m 433.4,433.5 h -3.5 c -0.4,0 -0.8,-0.3 -0.8,-0.7 v -3.2 c 0,-0.4 0.4,-0.7 0.8,-0.7 h 3.5 c 0.4,0 0.7,0.3 0.7,0.7 v 3.2 c 0,0.4 -0.3,0.7 -0.7,0.7 z m -0.1,23.4 H 430 c -0.4,0 -0.7,-0.4 -0.7,-0.8 V 437 c 0,-0.4 0.3,-0.7 0.7,-0.7 h 3.3 c 0.4,0 0.7,0.3 0.7,0.7 v 19.1 c 0,0.4 -0.4,0.8 -0.7,0.8 z"
           id="path53"
           inkscape:connector-curvature="0"
           style="fill:#535f68" /><path
           d="m 454.8,456.9 h -3.3 c -0.4,0 -0.7,-0.4 -0.7,-0.8 v -11.9 c 0,-3.2 -0.3,-4.1 -3.1,-4.1 -1.2,0 -2.6,0.5 -4.1,1.3 v 14.7 c 0,0.4 -0.3,0.8 -0.7,0.8 h -3.3 c -0.4,0 -0.7,-0.4 -0.7,-0.8 V 437 c 0,-0.4 0.3,-0.7 0.7,-0.7 h 3.1 c 0.4,0 0.7,0.3 0.7,0.7 v 0.8 c 2.1,-1.4 3.5,-1.8 5.9,-1.8 5.2,0 6.3,3.6 6.3,8.2 v 11.9 c -0.1,0.4 -0.4,0.8 -0.8,0.8 z"
           id="path55"
           inkscape:connector-curvature="0"
           style="fill:#535f68" /><path
           d="m 485.2,448.3 h -11.8 v 0.1 c 0,2.1 0.9,4.6 4.3,4.6 2.6,0 5.1,-0.2 6.7,-0.4 0,0 0.1,0 0.1,0 0.4,0 0.7,0.2 0.7,0.5 v 2.4 c 0,0.6 -0.1,0.8 -0.8,1 -2.3,0.4 -3.8,0.6 -7,0.6 -3.6,0 -8.7,-2 -8.7,-9.2 v -2.7 c 0,-5.7 3.1,-9.3 8.7,-9.3 5.6,0 8.6,3.8 8.6,9.3 v 2.1 c -0.1,0.6 -0.3,1 -0.8,1 z m -4.1,-3.6 c 0,-2.9 -1.6,-4.5 -3.8,-4.5 -2.2,0 -3.9,1.6 -3.9,4.5 v 0.1 h 7.7 v -0.1 z"
           id="path57"
           inkscape:connector-curvature="0"
           style="fill:#535f68" /><path
           d="m 499.9,432.3 h -1.6 c -1.7,0 -2.1,0.4 -2.1,2.2 v 1.8 h 3.5 c 0.4,0 0.7,0.3 0.7,0.7 v 2.2 c 0,0.4 -0.3,0.7 -0.7,0.7 h -3.5 v 16.3 c 0,0.4 -0.3,0.8 -0.7,0.8 h -3.3 c -0.4,0 -0.8,-0.4 -0.8,-0.8 v -16.3 l -3.2,-0.5 c -0.4,-0.1 -0.7,-0.3 -0.7,-0.7 V 437 c 0,-0.4 0.3,-0.7 0.7,-0.7 h 3.2 v -1.8 c 0,-4.7 2.5,-5.9 6.3,-5.9 0.9,0 1.5,0.1 2.2,0.3 0.3,0.1 0.7,0.3 0.7,0.6 v 2.2 c -0.1,0.4 -0.4,0.6 -0.7,0.6 z"
           id="path59"
           inkscape:connector-curvature="0"
           style="fill:#535f68" /><path
           d="M 518.8,448.3 H 507 v 0.1 c 0,2.1 0.9,4.6 4.3,4.6 2.6,0 5.1,-0.2 6.7,-0.4 0,0 0.1,0 0.1,0 0.4,0 0.7,0.2 0.7,0.5 v 2.4 c 0,0.6 -0.1,0.8 -0.8,1 -2.3,0.4 -3.8,0.6 -7,0.6 -3.6,0 -8.7,-2 -8.7,-9.2 v -2.7 c 0,-5.7 3.1,-9.3 8.7,-9.3 5.6,0 8.6,3.8 8.6,9.3 v 2.1 c -0.1,0.6 -0.3,1 -0.8,1 z m -4.1,-3.6 c 0,-2.9 -1.6,-4.5 -3.8,-4.5 -2.2,0 -3.9,1.6 -3.9,4.5 v 0.1 h 7.7 v -0.1 z"
           id="path61"
           inkscape:connector-curvature="0"
           style="fill:#535f68" /><path
           d="m 535.7,456.7 c -0.8,0.2 -2.5,0.5 -4.7,0.5 -4.7,0 -8.2,-2.9 -8.2,-8.9 v -3.4 c 0,-6 3.5,-8.9 8.2,-8.9 2.2,0 3.8,0.3 4.7,0.5 0.6,0.1 0.8,0.4 0.8,1 v 2.4 c 0,0.4 -0.3,0.5 -0.7,0.5 0,0 -0.1,0 -0.1,0 -1.4,-0.2 -2.3,-0.3 -4.7,-0.3 -1.7,0 -3.5,1 -3.5,4.8 v 3.4 c 0,3.8 1.8,4.8 3.5,4.8 2.3,0 3.2,-0.1 4.7,-0.3 0,0 0.1,0 0.1,0 0.4,0 0.7,0.2 0.7,0.5 v 2.4 c 0,0.7 -0.1,0.9 -0.8,1 z"
           id="path63"
           inkscape:connector-curvature="0"
           style="fill:#535f68" /><path
           d="m 551.2,456.9 c -0.9,0.1 -1.7,0.3 -2.5,0.3 -4.1,0 -5.7,-0.9 -5.7,-5.8 v -11.5 l -3.4,-0.5 c -0.4,-0.1 -0.7,-0.3 -0.7,-0.7 V 437 c 0,-0.4 0.3,-0.7 0.7,-0.7 h 3.4 v -3 c 0,-0.4 0.3,-0.7 0.7,-0.7 l 3.4,-0.6 c 0,0 0.1,0 0.1,0 0.3,0 0.6,0.2 0.6,0.5 v 3.8 h 3.3 c 0.4,0 0.7,0.3 0.7,0.7 v 2.2 c 0,0.4 -0.3,0.7 -0.7,0.7 h -3.3 v 11.5 c 0,1.8 0.1,2.1 1.4,2.1 h 1.9 c 0.5,0 0.8,0.2 0.8,0.5 v 2.3 c 0,0.4 -0.2,0.6 -0.7,0.6 z"
           id="path65"
           inkscape:connector-curvature="0"
           style="fill:#535f68" /><path
           d="m 559.4,433.5 h -3.5 c -0.4,0 -0.8,-0.3 -0.8,-0.7 v -3.2 c 0,-0.4 0.4,-0.7 0.8,-0.7 h 3.5 c 0.4,0 0.7,0.3 0.7,0.7 v 3.2 c 0,0.4 -0.3,0.7 -0.7,0.7 z m -0.1,23.4 H 556 c -0.4,0 -0.7,-0.4 -0.7,-0.8 V 437 c 0,-0.4 0.3,-0.7 0.7,-0.7 h 3.3 c 0.4,0 0.7,0.3 0.7,0.7 v 19.1 c 0,0.4 -0.3,0.8 -0.7,0.8 z"
           id="path67"
           inkscape:connector-curvature="0"
           style="fill:#535f68" /><path
           d="m 581.5,437.1 -4.6,16.7 c -0.7,2.7 -2.7,3.4 -4.5,3.4 -1.8,0 -3.8,-0.7 -4.5,-3.4 l -4.6,-16.7 c 0,-0.1 0,-0.2 0,-0.3 0,-0.3 0.3,-0.6 0.6,-0.6 h 3.6 c 0.3,0 0.6,0.3 0.7,0.7 l 3.5,15.3 c 0.1,0.7 0.4,0.9 0.7,0.9 0.3,0 0.5,-0.2 0.7,-0.9 l 3.5,-15.3 c 0.1,-0.5 0.4,-0.7 0.8,-0.7 h 3.6 c 0.3,0 0.6,0.3 0.6,0.6 -0.1,0.1 -0.1,0.2 -0.1,0.3 z"
           id="path69"
           inkscape:connector-curvature="0"
           style="fill:#535f68" /><path
           d="m 591.9,457.2 c -5.7,0 -8.6,-3.9 -8.6,-9.1 v -3 c 0,-5.2 3,-9.1 8.6,-9.1 5.7,0 8.6,3.9 8.6,9.1 v 3 c 0,5.2 -3,9.1 -8.6,9.1 z m 3.8,-12.1 c 0,-3 -1.3,-4.9 -3.9,-4.9 -2.5,0 -3.9,1.9 -3.9,4.9 v 3 c 0,3 1.3,4.9 3.9,4.9 2.5,0 3.9,-1.9 3.9,-4.9 v -3 z"
           id="path71"
           inkscape:connector-curvature="0"
           style="fill:#535f68" /></g></g></g></svg>
